<svg xmlns="http://www.w3.org/2000/svg" xmlns:xlink="http://www.w3.org/1999/xlink" width="48" height="48" viewBox="0 0 48 48">
    <defs>
        <path id="prefix__a" d="M14.833.667c1.379 0 2.5 1.121 2.5 2.5v11.666c0 1.379-1.121 2.5-2.5 2.5H3.165l-.162-.005C1.7 17.243.667 16.157.667 14.833V3.167c0-1.379 1.121-2.5 2.5-2.5h11.666zm-2.5 7.845L5.18 15.666h9.654c.46 0 .834-.373.834-.833l-.001-2.99-3.333-3.331zm2.5-6.179H3.167c-.46 0-.834.374-.834.834v11.666c0 .357.226.662.542.78l8.87-8.869c.325-.326.852-.326 1.178 0l2.743 2.744V3.167c0-.46-.373-.834-.833-.834zM6.083 4c1.149 0 2.084.935 2.084 2.083 0 1.149-.935 2.084-2.084 2.084C4.935 8.167 4 7.232 4 6.083 4 4.935 4.935 4 6.083 4zm0 1.667c-.23 0-.416.186-.416.416 0 .23.186.417.416.417.23 0 .417-.187.417-.417 0-.23-.187-.416-.417-.416z"/>
    </defs>
    <g fill="none" fill-rule="evenodd">
        <path stroke="#FF5A55" stroke-dasharray="4 4" d="M24 48c13.255 0 24-10.745 24-24S37.255 0 24 0 0 10.745 0 24s10.745 24 24 24z"/>
        <g transform="translate(15 15)">
            <use fill="#66CBC9" xlink:href="#prefix__a"/>
        </g>
    </g>
</svg>
