<svg xmlns="http://www.w3.org/2000/svg" xmlns:xlink="http://www.w3.org/1999/xlink" width="20" height="20" viewBox="0 0 20 20">
    <defs>
        <path id="prefix__a" d="M12.5.667c.278 0 .538.139.693.37l1.42 2.13H17.5c1.378 0 2.5 1.121 2.5 2.5v9.166c0 1.379-1.122 2.5-2.5 2.5h-15c-1.378 0-2.5-1.121-2.5-2.5V5.667c0-1.379 1.122-2.5 2.5-2.5h2.888l1.419-2.13c.155-.231.415-.37.693-.37h5zm-.446 1.666H7.946l-1.42 2.13c-.154.231-.414.37-.693.37H2.5c-.46 0-.833.374-.833.834v9.166c0 .46.374.834.833.834h15c.46 0 .833-.374.833-.834V5.667c0-.46-.373-.834-.833-.834h-3.333c-.279 0-.539-.139-.694-.37l-1.419-2.13zM10 5.667c2.297 0 4.167 1.869 4.167 4.166C14.167 12.131 12.297 14 10 14c-2.298 0-4.167-1.87-4.167-4.167 0-2.297 1.87-4.166 4.167-4.166zm0 1.666c-1.378 0-2.5 1.122-2.5 2.5 0 1.379 1.122 2.5 2.5 2.5s2.5-1.121 2.5-2.5c0-1.378-1.122-2.5-2.5-2.5z"/>
    </defs>
    <g fill="none" fill-rule="evenodd" transform="translate(0 1)">
        <use fill="#D1D4D7" xlink:href="#prefix__a"/>
    </g>
</svg>
