<svg xmlns="http://www.w3.org/2000/svg" xmlns:xlink="http://www.w3.org/1999/xlink" width="20" height="20" viewBox="0 0 20 20">
    <defs>
        <path id="prefix__a" d="M10.833 10.667c2.298 0 4.167 1.869 4.167 4.166V16.5c0 .46-.373.833-.833.833-.461 0-.834-.372-.834-.833v-1.667c0-1.378-1.121-2.5-2.5-2.5H4.167c-1.379 0-2.5 1.122-2.5 2.5V16.5c0 .46-.374.833-.834.833-.46 0-.833-.372-.833-.833v-1.667c0-2.297 1.87-4.166 4.167-4.166h6.666zm6.042.135c1.84.475 3.124 2.133 3.125 4.03V16.5c0 .46-.372.833-.833.833-.461 0-.834-.372-.834-.833v-1.667c0-1.138-.771-2.133-1.875-2.418-.445-.115-.713-.57-.598-1.015.115-.446.57-.717 1.015-.598zM7.5.667c2.297 0 4.167 1.869 4.167 4.166C11.667 7.131 9.797 9 7.5 9 5.202 9 3.333 7.13 3.333 4.833 3.333 2.536 5.203.667 7.5.667zM13.54.8c2.226.57 3.573 2.844 3.003 5.07-.378 1.475-1.528 2.626-3.003 3.003-.07.018-.14.026-.207.026-.371 0-.711-.25-.807-.627-.114-.446.155-.9.6-1.014.885-.227 1.577-.917 1.802-1.802.342-1.335-.466-2.7-1.801-3.041-.446-.114-.715-.569-.601-1.014.114-.446.57-.716 1.014-.601zM7.5 2.333c-1.378 0-2.5 1.122-2.5 2.5 0 1.379 1.122 2.5 2.5 2.5s2.5-1.121 2.5-2.5c0-1.378-1.122-2.5-2.5-2.5z"/>
    </defs>
    <g fill="none" fill-rule="evenodd" transform="translate(0 1)">
        <use fill="#4C4B5E" xlink:href="#prefix__a"/>
    </g>
</svg>
