<svg xmlns="http://www.w3.org/2000/svg" xmlns:xlink="http://www.w3.org/1999/xlink" width="48" height="48" viewBox="0 0 48 48">
    <defs>
        <path id="prefix__a" d="M9 0c4.595 0 8.333 3.738 8.333 8.333 0 6.208-7.55 11.313-7.87 11.527-.14.093-.302.14-.463.14-.16 0-.322-.047-.463-.14-.32-.214-7.87-5.32-7.87-11.527C.667 3.738 4.405 0 9 0zm0 1.667c-3.676 0-6.667 2.99-6.667 6.666 0 4.511 5.086 8.636 6.667 9.81 1.58-1.174 6.667-5.299 6.667-9.81 0-3.676-2.991-6.666-6.667-6.666zM9 5c1.838 0 3.333 1.495 3.333 3.333 0 1.839-1.495 3.334-3.333 3.334s-3.333-1.495-3.333-3.334C5.667 6.495 7.162 5 9 5zm0 1.667c-.92 0-1.667.747-1.667 1.666C7.333 9.253 8.081 10 9 10c.92 0 1.667-.748 1.667-1.667S9.919 6.667 9 6.667z"/>
    </defs>
    <g fill="none" fill-rule="evenodd">
        <path stroke="#FF5A55" stroke-dasharray="4 4" d="M24 48c13.255 0 24-10.745 24-24S37.255 0 24 0 0 10.745 0 24s10.745 24 24 24z"/>
        <g transform="translate(15 14)">
            <use fill="#66CBC9" xlink:href="#prefix__a"/>
        </g>
    </g>
</svg>
