<svg xmlns="http://www.w3.org/2000/svg" xmlns:xlink="http://www.w3.org/1999/xlink" width="20" height="20" viewBox="0 0 20 20">
    <defs>
        <path id="prefix__a" d="M16.077 16.792c-.062.405-.415.708-.834.708H6.667V9.344l3.006-6.765c.673.215 1.16.845 1.16 1.588V7.5c0 .46.373.834.834.834h4.728c.045.001.088.002.132.009.22.033.415.15.546.33.132.179.187.398.154.617l-1.15 7.502zM5 17.5H3.333c-.459 0-.833-.374-.833-.833v-5.833c0-.46.374-.834.833-.834H5v7.5zm13.416-9.816c-.397-.538-.979-.889-1.64-.99-.133-.02-.264-.024-.393-.027H12.5v-2.5c0-1.838-1.495-3.333-3.333-3.333-.33 0-.628.194-.762.494L5.292 8.334H3.333c-1.378 0-2.5 1.12-2.5 2.5v5.833c0 1.378 1.122 2.5 2.5 2.5h11.921c1.226 0 2.286-.91 2.47-2.124l1.15-7.501c.101-.66-.062-1.32-.458-1.858z"/>
    </defs>
    <g fill="none" fill-rule="evenodd">
        <use fill="#D1D4D7" xlink:href="#prefix__a"/>
    </g>
</svg>
